<svg xmlns="http://www.w3.org/2000/svg" xmlns:xlink="http://www.w3.org/1999/xlink" width="500" zoomAndPan="magnify" viewBox="0 0 375 374.999991" height="500" preserveAspectRatio="xMidYMid meet" version="1.0"><defs><g/><clipPath id="e12a37211d"><path d="M 146.3125 124 L 183 124 L 183 158 L 146.3125 158 Z M 146.3125 124 " clip-rule="nonzero"/></clipPath><clipPath id="031fafd006"><path d="M 193 124 L 228.8125 124 L 228.8125 158 L 193 158 Z M 193 124 " clip-rule="nonzero"/></clipPath><clipPath id="f5839f6fb8"><path d="M 146.3125 167 L 228.8125 167 L 228.8125 197 L 146.3125 197 Z M 146.3125 167 " clip-rule="nonzero"/></clipPath><clipPath id="2550337427"><path d="M 152 189 L 167 189 L 167 203.324219 L 152 203.324219 Z M 152 189 " clip-rule="nonzero"/></clipPath><clipPath id="df9c31a271"><path d="M 207 189 L 222 189 L 222 203.324219 L 207 203.324219 Z M 207 189 " clip-rule="nonzero"/></clipPath></defs><rect x="-37.5" width="450" fill="#ffffff" y="-37.499999" height="449.999989" fill-opacity="1"/><rect x="-37.5" width="450" fill="#ffffff" y="-37.499999" height="449.999989" fill-opacity="1"/><rect x="-37.5" width="450" fill="#1f7a8c" y="-37.499999" height="449.999989" fill-opacity="1"/><g clip-path="url(#e12a37211d)"><path fill="#ffffff" d="M 166.421875 157.949219 C 167.378906 149.925781 173.765625 133.605469 182.054688 124.96875 C 170.117188 127.996094 152.796875 139.277344 146.703125 155.523438 C 153.335938 150.960938 160.621094 152.328125 166.421875 157.949219 " fill-opacity="1" fill-rule="nonzero"/></g><path fill="#ffffff" d="M 187.636719 124.523438 C 179.507812 130.3125 171.492188 146.875 169.773438 157.996094 C 179.261719 151.070312 195.976562 151.046875 205.492188 157.992188 C 205.449219 157.339844 204.78125 153.875 203.507812 150.023438 C 197.566406 132.089844 189.636719 126.523438 187.636719 124.523438 " fill-opacity="1" fill-rule="nonzero"/><g clip-path="url(#031fafd006)"><path fill="#ffffff" d="M 228.566406 155.523438 C 222.574219 139.546875 205.488281 128.082031 193.21875 124.96875 C 201.082031 133.152344 207.351562 148.085938 208.851562 157.949219 C 215.234375 151.757812 222.550781 151.378906 228.566406 155.523438 " fill-opacity="1" fill-rule="nonzero"/></g><path fill="#ffffff" d="M 188.484375 109.800781 C 188.285156 108.886719 186.988281 108.886719 186.785156 109.800781 L 184.175781 121.582031 L 191.09375 121.582031 L 188.484375 109.800781 " fill-opacity="1" fill-rule="nonzero"/><g clip-path="url(#f5839f6fb8)"><path fill="#ffffff" d="M 202.625 180.765625 C 198.742188 180.382812 191.210938 179.667969 183.5 179.117188 L 183.5 170.289062 L 185.472656 170.289062 C 186.503906 170.289062 187.539062 170.429688 188.53125 170.691406 C 194.882812 172.371094 199.5625 175.378906 203.394531 179.054688 C 204.082031 179.707031 203.566406 180.859375 202.625 180.765625 Z M 190.800781 182.589844 C 190.800781 182.929688 190.527344 183.203125 190.195312 183.203125 L 185.9375 183.203125 C 185.597656 183.203125 185.328125 182.929688 185.328125 182.589844 L 185.328125 182.015625 C 185.328125 181.675781 185.597656 181.40625 185.9375 181.40625 L 190.195312 181.40625 C 190.527344 181.40625 190.800781 181.675781 190.800781 182.015625 Z M 162.742188 181.542969 C 162.742188 181.203125 163.019531 180.933594 163.359375 180.933594 L 167.613281 180.933594 C 167.953125 180.933594 168.222656 181.203125 168.222656 181.542969 L 168.222656 182.117188 C 168.222656 182.457031 167.953125 182.734375 167.613281 182.734375 L 163.359375 182.734375 C 163.019531 182.734375 162.742188 182.457031 162.742188 182.117188 Z M 220.261719 185.21875 C 220.25 184.988281 224.242188 184.601562 226.691406 186.480469 C 224.386719 182.519531 220.15625 179.804688 215.257812 179.667969 L 211.058594 179.546875 L 196.355469 170.667969 C 192.277344 168.207031 187.585938 166.972656 182.824219 167.117188 L 160.519531 168.035156 C 158.964844 168.105469 157.511719 168.835938 156.53125 170.050781 L 149.699219 178.53125 C 149.367188 178.9375 149.660156 179.546875 150.179688 179.546875 L 155.195312 179.546875 C 150.460938 181.796875 147.101562 186.523438 146.859375 192.121094 L 146.703125 195.785156 L 150.570312 195.824219 C 150.949219 191.164062 154.84375 187.480469 159.589844 187.480469 C 164.390625 187.480469 168.320312 191.253906 168.613281 195.992188 L 188.058594 196.175781 L 176.3125 178.664062 C 170.339844 178.347656 164.941406 178.226562 161.878906 178.5625 C 161.265625 178.628906 160.746094 178.128906 160.789062 177.511719 L 161.21875 171.214844 C 161.253906 170.691406 161.683594 170.289062 162.203125 170.289062 L 181.074219 170.289062 L 181.074219 178.949219 C 180.625 178.921875 180.179688 178.890625 179.734375 178.863281 L 191.371094 196.203125 L 205.464844 196.335938 C 205.582031 191.4375 209.585938 187.480469 214.5 187.480469 C 219.472656 187.480469 223.523438 191.523438 223.554688 196.507812 L 228.566406 196.554688 L 228.566406 193.382812 C 228.566406 192.507812 228.476562 191.644531 228.320312 190.8125 C 227.546875 190.847656 224.894531 190.191406 220.261719 185.21875 " fill-opacity="1" fill-rule="nonzero"/></g><g clip-path="url(#2550337427)"><path fill="#ffffff" d="M 159.589844 199.941406 C 157.722656 199.941406 156.210938 198.425781 156.210938 196.554688 C 156.210938 196.433594 156.214844 196.3125 156.226562 196.199219 C 156.40625 194.496094 157.84375 193.167969 159.589844 193.167969 C 161.355469 193.167969 162.800781 194.53125 162.949219 196.261719 C 162.957031 196.359375 162.960938 196.457031 162.960938 196.554688 C 162.960938 198.425781 161.453125 199.941406 159.589844 199.941406 Z M 159.589844 189.789062 C 156.09375 189.789062 153.226562 192.4375 152.871094 195.84375 C 152.847656 196.078125 152.835938 196.3125 152.835938 196.554688 C 152.835938 200.292969 155.859375 203.324219 159.589844 203.324219 C 163.316406 203.324219 166.339844 200.292969 166.339844 196.554688 C 166.339844 196.359375 166.328125 196.164062 166.3125 195.96875 C 166.015625 192.507812 163.121094 189.789062 159.589844 189.789062 " fill-opacity="1" fill-rule="nonzero"/></g><g clip-path="url(#df9c31a271)"><path fill="#ffffff" d="M 214.5 199.941406 C 212.636719 199.941406 211.128906 198.425781 211.128906 196.554688 C 211.128906 196.519531 211.128906 196.492188 211.128906 196.457031 C 211.183594 194.636719 212.671875 193.167969 214.5 193.167969 C 216.355469 193.167969 217.855469 194.667969 217.878906 196.519531 C 217.878906 196.53125 217.878906 196.542969 217.878906 196.554688 C 217.878906 198.425781 216.363281 199.941406 214.5 199.941406 Z M 214.5 189.789062 C 210.839844 189.789062 207.863281 192.714844 207.761719 196.359375 C 207.761719 196.421875 207.75 196.488281 207.75 196.554688 C 207.75 200.292969 210.773438 203.324219 214.5 203.324219 C 218.234375 203.324219 221.257812 200.292969 221.257812 196.554688 C 221.257812 196.53125 221.253906 196.507812 221.253906 196.488281 C 221.210938 192.785156 218.210938 189.789062 214.5 189.789062 " fill-opacity="1" fill-rule="nonzero"/></g><g fill="#ffffff" fill-opacity="1"><g transform="translate(72.923968, 242.926698)"><g><path d="M 5.472656 0 L 5.472656 -24.414062 L 2.527344 -24.414062 L 2.527344 0 Z M 5.472656 0 "/></g></g></g><g fill="#ffffff" fill-opacity="1"><g transform="translate(90.137866, 242.926698)"><g><path d="M 5.472656 0 L 5.472656 -21.40625 L 16.414062 0 L 20.699219 0 L 20.699219 -24.414062 L 17.789062 -24.414062 L 17.789062 -2.945312 L 6.816406 -24.414062 L 2.527344 -24.414062 L 2.527344 0 Z M 5.472656 0 "/></g></g></g><g fill="#ffffff" fill-opacity="1"><g transform="translate(122.580028, 242.926698)"><g><path d="M 11.359375 0.320312 C 16.925781 0.320312 19.902344 -2.496094 19.902344 -6.816406 C 19.902344 -12.15625 15.515625 -13.085938 11.519531 -13.949219 C 8.253906 -14.652344 5.277344 -15.292969 5.277344 -18.269531 C 5.277344 -20.605469 7.007812 -22.109375 10.300781 -22.109375 C 12.988281 -22.109375 15.644531 -21.019531 16.347656 -17.691406 L 19.195312 -17.691406 C 18.398438 -22.714844 14.460938 -24.730469 10.335938 -24.730469 C 5.566406 -24.730469 2.335938 -22.171875 2.335938 -18.011719 C 2.335938 -13.214844 6.398438 -12.351562 10.207031 -11.550781 C 13.660156 -10.8125 16.957031 -10.109375 16.957031 -6.621094 C 16.957031 -3.710938 14.910156 -2.304688 11.484375 -2.304688 C 8.445312 -2.304688 5.085938 -3.488281 4.320312 -7.390625 L 1.34375 -7.390625 C 2.175781 -1.917969 6.527344 0.320312 11.359375 0.320312 Z M 11.359375 0.320312 "/></g></g></g><g fill="#ffffff" fill-opacity="1"><g transform="translate(153.294612, 242.926698)"><g><path d="M 11.359375 0.320312 C 17.535156 0.320312 20.414062 -3.039062 20.414062 -8.445312 L 20.414062 -24.414062 L 17.46875 -24.414062 L 17.46875 -8.445312 C 17.46875 -4.640625 15.613281 -2.304688 11.359375 -2.304688 C 7.101562 -2.304688 5.246094 -4.640625 5.246094 -8.445312 L 5.246094 -24.414062 L 2.304688 -24.414062 L 2.304688 -8.445312 C 2.304688 -3.039062 5.183594 0.320312 11.359375 0.320312 Z M 11.359375 0.320312 "/></g></g></g><g fill="#ffffff" fill-opacity="1"><g transform="translate(185.224902, 242.926698)"><g><path d="M 14.972656 -10.847656 C 17.726562 -11.839844 19.355469 -14.140625 19.355469 -17.4375 C 19.355469 -22.140625 16.285156 -24.414062 11.613281 -24.414062 L 2.527344 -24.414062 L 2.527344 0 L 5.472656 0 L 5.472656 -10.300781 L 12.125 -10.300781 L 16.445312 0 L 19.675781 0 Z M 5.472656 -12.925781 L 5.472656 -21.757812 L 11.230469 -21.757812 C 14.527344 -21.757812 16.445312 -20.15625 16.445312 -17.339844 C 16.445312 -14.492188 14.589844 -12.925781 11.230469 -12.925781 Z M 5.472656 -12.925781 "/></g></g></g><g fill="#ffffff" fill-opacity="1"><g transform="translate(215.523591, 242.926698)"><g><path d="M 18.300781 0 L 18.300781 -2.65625 L 5.472656 -2.65625 L 5.472656 -10.941406 L 16.796875 -10.941406 L 16.796875 -13.566406 L 5.472656 -13.566406 L 5.472656 -21.757812 L 18.300781 -21.757812 L 18.300781 -24.414062 L 2.527344 -24.414062 L 2.527344 0 Z M 18.300781 0 "/></g></g></g><g fill="#ffffff" fill-opacity="1"><g transform="translate(244.414634, 242.926698)"><g><path d="M 5.472656 0 L 5.472656 -22.492188 L 12.925781 0 L 15.835938 0 L 23.292969 -22.652344 L 23.292969 0 L 26.234375 0 L 26.234375 -24.414062 L 20.925781 -24.414062 L 14.367188 -3.648438 L 7.808594 -24.414062 L 2.527344 -24.414062 L 2.527344 0 Z M 5.472656 0 "/></g></g></g><g fill="#ffffff" fill-opacity="1"><g transform="translate(282.35944, 242.926698)"><g><path d="M 18.300781 0 L 18.300781 -2.65625 L 5.472656 -2.65625 L 5.472656 -10.941406 L 16.796875 -10.941406 L 16.796875 -13.566406 L 5.472656 -13.566406 L 5.472656 -21.757812 L 18.300781 -21.757812 L 18.300781 -24.414062 L 2.527344 -24.414062 L 2.527344 0 Z M 18.300781 0 "/></g></g></g></svg>